<svg width="550" height="611" viewBox="0 0 550 611" fill="none" xmlns="http://www.w3.org/2000/svg">
<path opacity="0.12" d="M550 611H0V462.5H550V611Z" fill="url(#paint0_radial)"/>
<path opacity="0.15" d="M487.668 2.33334H308.001V458.833H487.668V2.33334Z" fill="url(#paint1_radial)" stroke="#A6B6C7" stroke-width="4"/>
<path opacity="0.25" fill-rule="evenodd" clip-rule="evenodd" d="M15.308 250.739C19.9524 228.99 40.616 223.903 57.5701 221.908C58.4615 221.803 59.3776 221.69 60.3137 221.574C77.1844 219.492 100.558 216.604 102.448 246.839C104.443 278.752 64.5511 288.726 64.5511 288.726C64.1722 288.782 63.7947 288.836 63.419 288.887C65.0415 311.345 69.8175 342.935 80.9475 355.848C89.327 352.614 97.9938 350.997 97.9938 350.997C97.9938 350.997 180.229 322.914 193.326 357.631C200.923 377.769 164.156 386.864 128.423 387.575L127.836 463.745C139.867 464.066 149.447 466.194 151.104 468.893L151.13 468.863C155.249 469.111 159.45 469.375 163.287 470.884C167.126 472.393 170.615 475.383 171.627 479.367C172.64 483.352 170.433 488.19 166.425 489.169C162.416 490.148 157.9 485.761 159.499 481.972C159.811 481.235 160.297 480.588 160.782 479.942C161.34 479.2 161.895 478.459 162.185 477.586C163.089 474.846 161.422 472.611 158.711 471.602C156.797 470.893 153.044 470.748 150.996 470.724C149.256 473.086 141.43 474.983 131.277 475.568C135.581 476.486 139.274 480.542 139.14 485.01C138.973 490.605 132.852 495.201 127.404 493.822C121.98 492.451 118.836 485.296 121.839 480.589C123.635 477.775 127.324 476.699 130.549 477.337L128.215 475.7C127.058 475.735 125.877 475.753 124.677 475.753C112.658 475.753 102.494 473.958 99.1556 471.491C93.6028 471.421 88.7529 472.163 85.967 475.284C87.5708 475.72 89.0923 476.386 90.4106 477.394C93.003 479.378 94.6075 482.894 93.5893 485.987C92.1903 490.236 86.0699 491.69 82.4457 489.05C78.8223 486.41 78.0355 480.93 80.0815 476.95C80.5204 476.096 81.8063 474.479 81.8063 474.479C84.1001 471.938 87.4535 470.326 90.8805 469.782C93.3104 469.397 95.7741 469.01 98.2085 468.962C99.7925 466.143 110.011 463.932 122.693 463.721L123.28 387.619C99.2631 387.559 76.7171 383.725 69.6652 376.94C61.012 368.615 67.2415 362.295 76.0368 357.978C69.9347 350.139 65.2245 337.116 61.9597 318.998C60.0428 308.361 58.9626 297.685 58.3563 289.369C29.0501 290.981 10.9622 271.087 15.308 250.739Z" fill="url(#paint2_radial)"/>
<path d="M275.295 111.34C277.853 104.949 277.213 95.1513 276.575 88.973C283.604 83.8617 291.911 80.6662 302.775 80.6662C302.775 92.1685 305.971 103.671 309.166 108.784C299.58 112.617 290.633 115.813 275.295 111.34Z" fill="#E9A99C"/>
<path d="M267.1 94.121C263.988 90.1445 259.876 72.9496 259.321 65.9536C259.321 47.7289 265.989 37.7876 282.104 36.1308C298.219 34.4738 306.555 43.3105 308.777 58.2225C311.001 73.1348 303.22 85.2843 297.108 88.599C288.715 93.1493 270.99 99.0911 267.1 94.121Z" fill="#F6B3A6"/>
<path d="M258.681 50.6301C251.736 47.8522 247.817 40.4056 248.457 32.0979C249.096 23.7903 255.112 24.2693 265.072 26.9856C272.101 28.9025 288.717 25.4091 297.023 27.6245C306.61 30.1807 313.001 37.8492 313.639 48.0741C314.15 56.2535 311.083 75.553 306.61 78.7485C306.61 71.0797 311.723 61.495 303.414 57.6597C298.635 55.4542 297.023 65.9683 295.746 67.8842C292.55 67.8842 297.462 51.8821 291.272 48.0741C282.965 42.9616 268.268 54.4642 258.681 50.6301Z" fill="#714949"/>
<path fill-rule="evenodd" clip-rule="evenodd" d="M255.14 260.707C270.87 251.716 292.721 259.372 305.258 279.227C316.362 296.814 322.067 352.181 322.295 373.125C330.987 377.024 340.371 383.645 345.679 389.858C349.736 394.612 354.437 403.265 359.792 413.125C367.578 427.459 376.746 444.341 387.338 455.48C392.975 461.411 390.331 471.014 379.407 466.454C369.486 462.315 322.746 419.096 307.613 405.102C306.083 403.688 304.876 402.572 304.062 401.826C300.48 398.535 298.344 395.248 297.275 392.076C282.409 380.396 260.436 345.266 248.644 320.798C238.825 300.424 239.412 269.699 255.14 260.707Z" fill="url(#paint3_linear)"/>
<path fill-rule="evenodd" clip-rule="evenodd" d="M328.898 263.719C343.214 278.094 337.67 300.835 323.356 320.798C311.661 337.107 274.05 365.674 254.034 376.894C253.221 387.295 250.616 399.228 247.85 408.266C244.63 418.782 233.66 434.789 221.886 451.967C212.268 466 202.114 480.813 195.211 494.055C190.369 503.345 177.664 509.978 179.127 494.055C180.108 483.369 195.979 438.909 207.636 406.255C213.345 390.263 218.042 377.103 219.484 372.129C220.287 369.361 221.378 366.892 222.693 364.723C222.768 364.204 222.856 363.672 222.959 363.126C226.537 343.96 245.864 305.024 265.906 283.27C281.711 266.113 314.581 249.346 328.898 263.719Z" fill="url(#paint4_linear)"/>
<path d="M144.154 246.904C156.395 247.967 165.083 245.386 167.593 244.321L165.51 234.901C164.073 231.955 156.059 229.095 151.441 229.83C138.935 231.823 126.307 226.876 118.453 225.424C110.599 223.972 109.084 227.146 113.469 232.69C120.659 241.783 134.766 246.088 144.154 246.904Z" fill="#F6B3A6"/>
<path fill-rule="evenodd" clip-rule="evenodd" d="M260.677 107.609C275.417 108.92 278.711 124.782 278.022 138.686C277.311 153.066 259.403 194.701 249.259 209.482C247.196 215.288 240.642 220.993 232.902 225.102C220.772 231.537 173.584 245.202 162.947 246.634C158.56 243.046 158.918 238.973 159.286 234.769C159.391 233.585 159.495 232.391 159.495 231.196C167.703 227.322 179.39 220.751 190.605 214.448C201.405 208.376 211.767 202.552 218.16 199.618C216.218 182.777 219.916 158.704 223.095 145.914C228.837 122.813 245.937 106.298 260.677 107.609Z" fill="url(#paint5_linear)"/>
<path d="M189.585 517.707C196.385 517.08 198.959 503.351 201.188 491.047C197.914 485.223 194.563 480.536 184.93 478.817C172.889 476.666 180.243 481.147 163.343 491.736C148.546 501.007 113.575 500.201 119.533 509.191C125.637 518.404 139.834 524.364 162.901 518.067C176.206 514.435 182.785 518.332 189.585 517.707Z" fill="#38342F"/>
<path d="M407.395 476.926C409.413 470.53 395.548 455.885 386.434 448.017C379.935 447.943 372.494 454.459 366.198 461.748C372.703 471.866 373.425 480.54 371.258 489.936C367.436 506.498 349.452 517.205 359.693 519.568C369.089 521.737 386.434 520.29 392.217 502.945C398.967 482.696 403.97 487.767 407.395 476.926Z" fill="#38342F"/>
<path d="M335.841 273.115C348.85 225.415 356.803 195.079 341.621 139.41C335.582 117.263 328.35 103.552 305.484 100.382C295.366 106.887 285.248 106.162 276.576 101.827C228.152 106.887 230.767 148.91 232.488 169.04C235.348 202.469 255.953 216.045 248.644 268.016C261.514 276.563 304.943 282.439 335.841 273.115Z" fill="url(#paint6_linear)"/>
<path d="M391.737 279.585C409.972 269.057 423.012 257.506 420.863 253.785C418.715 250.063 402.191 255.581 383.956 266.109C365.722 276.637 352.681 288.188 354.83 291.909C356.978 295.631 373.502 290.113 391.737 279.585Z" fill="#181818"/>
<path d="M386.074 243.324L363.164 256.551L375.613 278.113L398.523 264.886L386.074 243.324Z" fill="#181818"/>
<path d="M392.162 124.813L257.492 202.565C254.861 204.083 253.96 207.447 255.479 210.078L302.108 290.842C303.627 293.473 306.991 294.374 309.621 292.856L444.291 215.104C446.922 213.585 447.823 210.221 446.304 207.591L399.675 126.826C398.156 124.195 394.792 123.294 392.162 124.813Z" fill="url(#paint7_linear)"/>
<path d="M389.878 133.316L265.989 204.843C263.358 206.362 262.457 209.726 263.976 212.356L304.381 282.34C305.899 284.971 309.263 285.872 311.894 284.353L435.783 212.826C438.413 211.307 439.315 207.943 437.796 205.313L397.391 135.329C395.872 132.698 392.508 131.797 389.878 133.316Z" fill="url(#paint8_linear)"/>
<path d="M272.975 247.509C276.09 243.241 292.438 235.559 301.78 236.412C306.712 238.973 315.638 244.777 311.902 247.509C307.231 250.922 304.116 261.167 298.667 265.435C296.132 267.419 290.102 273.971 283.874 267.994C276.533 260.953 269.86 251.777 272.975 247.509Z" fill="#F6B3A6"/>
<path fill-rule="evenodd" clip-rule="evenodd" d="M320.422 107.869C344.563 98.4202 363.634 124.272 368.679 135.95C373.724 147.631 391.84 193.867 391.363 204.059C391.123 209.185 387.212 213.785 381.855 215.996C366.347 227.241 325.887 242.973 311.268 248.543C306.87 247.382 301.234 241.437 300.428 237.7C318.961 221.686 336.011 209.176 348.654 200.132C334.509 185.947 317.832 166.389 312.713 158.2C305.486 146.637 296.279 117.316 320.422 107.869Z" fill="url(#paint9_linear)"/>
<path d="M95.1704 59.6011C123.592 75.8408 143.081 138.368 137.396 178.157C143.893 180.594 147.953 135.12 144.705 115.631C141.457 96.1431 121.968 66.0966 95.1704 59.6011Z" fill="url(#paint10_linear)"/>
<path d="M190.579 116.185C157.005 131.426 153.562 150.544 145.241 167.676C143.01 169.018 139.01 152.909 145.016 138.128C148.821 128.762 163.008 113.692 190.579 116.185Z" fill="url(#paint11_linear)"/>
<path d="M59.437 127C94.3547 128.624 121.964 152.986 133.332 176.533C136.581 178.97 134.145 151.361 125.212 139.181C115.68 126.182 92.7305 116.444 59.437 127Z" fill="url(#paint12_linear)"/>
<path d="M199.924 75.0287C164.194 82.3382 145.518 146.488 142.27 180.594C140.401 185.527 136.323 147.766 140.646 128.622C146.33 103.451 165.819 77.4652 199.924 75.0287Z" fill="url(#paint13_linear)"/>
<path d="M72.4312 94.5188C122.777 106.698 126.026 154.608 135.77 176.533C139.018 178.969 141.454 156.232 134.146 131.871C129.514 116.433 110.597 92.8944 72.4312 94.5188Z" fill="url(#paint14_linear)"/>
<path d="M198.765 139.963C163.378 145.676 154.802 163.111 142.266 177.345C139.822 178.04 140.658 161.516 150.387 148.925C156.551 140.944 173.936 130.247 198.765 139.963Z" fill="url(#paint15_linear)"/>
<path d="M104.658 187.412C103.173 182.688 106.701 177.881 111.654 177.881H166.889C171.687 177.881 175.192 182.413 173.986 187.056L163.879 225.984C163.039 229.218 160.121 231.474 156.78 231.474H123.89C120.687 231.474 117.854 229.395 116.894 226.339L104.658 187.412Z" fill="url(#paint16_linear)"/>
<path d="M113.849 168.947C109.788 168.947 105.728 171.383 104.916 173.82H172.316C171.503 173.007 169.494 170.679 165.818 169.759C162.144 168.84 159.323 168.947 152.825 170.571C151.203 168.947 144.47 166.127 139.022 169.759C137.398 168.406 134.961 166.512 130.089 166.512C125.217 166.512 122.24 168.677 121.157 170.571C120.074 170.03 115.903 168.947 113.849 168.947Z" fill="#383838"/>
<path d="M173.938 173.007H102.479C98.443 173.007 95.1709 176.28 95.1709 180.316C95.1709 184.352 98.443 187.624 102.479 187.624H173.938C177.975 187.624 181.247 184.352 181.247 180.316C181.247 176.28 177.975 173.007 173.938 173.007Z" fill="url(#paint17_linear)"/>
<defs>
<radialGradient id="paint0_radial" cx="0" cy="0" r="1" gradientUnits="userSpaceOnUse" gradientTransform="translate(260.333 438.667) rotate(90.2677) scale(196.168 235.206)">
<stop stop-color="#485E80" stop-opacity="0.51"/>
<stop offset="1" stop-color="#495F80" stop-opacity="0"/>
</radialGradient>
<radialGradient id="paint1_radial" cx="0" cy="0" r="1" gradientUnits="userSpaceOnUse" gradientTransform="translate(417.084 80.25) rotate(107.554) scale(471.102 194.15)">
<stop stop-color="#485E80" stop-opacity="0.51"/>
<stop offset="1" stop-color="#495F80" stop-opacity="0"/>
</radialGradient>
<radialGradient id="paint2_radial" cx="0" cy="0" r="1" gradientUnits="userSpaceOnUse" gradientTransform="translate(32.639 493.166) rotate(-51.4678) scale(419.43 244.699)">
<stop stop-color="#485E80" stop-opacity="0.51"/>
<stop offset="1" stop-color="#495F80" stop-opacity="0"/>
</radialGradient>
<linearGradient id="paint3_linear" x1="271.178" y1="246.678" x2="272.96" y2="430.547" gradientUnits="userSpaceOnUse">
<stop stop-color="#5495AA"/>
<stop offset="1" stop-color="#215880"/>
</linearGradient>
<linearGradient id="paint4_linear" x1="265.166" y1="280.342" x2="215.35" y2="503.356" gradientUnits="userSpaceOnUse">
<stop stop-color="#5495AA"/>
<stop offset="1" stop-color="#215880"/>
</linearGradient>
<linearGradient id="paint5_linear" x1="258.699" y1="130.736" x2="229.49" y2="242.341" gradientUnits="userSpaceOnUse">
<stop stop-color="#53C46C"/>
<stop offset="1" stop-color="#1F964F"/>
</linearGradient>
<linearGradient id="paint6_linear" x1="327.889" y1="132.181" x2="263.429" y2="231.788" gradientUnits="userSpaceOnUse">
<stop stop-color="#53C46C"/>
<stop offset="1" stop-color="#1F964F"/>
</linearGradient>
<linearGradient id="paint7_linear" x1="386.434" y1="103.995" x2="308.378" y2="302.025" gradientUnits="userSpaceOnUse">
<stop/>
<stop offset="1" stop-color="#606060"/>
</linearGradient>
<linearGradient id="paint8_linear" x1="373.42" y1="103.995" x2="332.225" y2="291.906" gradientUnits="userSpaceOnUse">
<stop stop-color="#6F6F6F"/>
<stop offset="1" stop-color="#242424"/>
</linearGradient>
<linearGradient id="paint9_linear" x1="391.491" y1="147.132" x2="330.36" y2="241.314" gradientUnits="userSpaceOnUse">
<stop stop-color="#53C46C"/>
<stop offset="1" stop-color="#2D9D5A"/>
</linearGradient>
<linearGradient id="paint10_linear" x1="126.909" y1="128.06" x2="142.384" y2="84.837" gradientUnits="userSpaceOnUse">
<stop stop-color="#2D8E4E"/>
<stop offset="1" stop-color="#8AD05F"/>
</linearGradient>
<linearGradient id="paint11_linear" x1="147.46" y1="160.97" x2="187.791" y2="132.936" gradientUnits="userSpaceOnUse">
<stop stop-color="#3DAA62"/>
<stop offset="1" stop-color="#8AD05F"/>
</linearGradient>
<linearGradient id="paint12_linear" x1="121.869" y1="170.415" x2="84.0343" y2="121.355" gradientUnits="userSpaceOnUse">
<stop stop-color="#3DAA62"/>
<stop offset="1" stop-color="#8AD05F"/>
</linearGradient>
<linearGradient id="paint13_linear" x1="147.084" y1="171.799" x2="132.132" y2="119.989" gradientUnits="userSpaceOnUse">
<stop stop-color="#2D8E4E"/>
<stop offset="1" stop-color="#8AD05F"/>
</linearGradient>
<linearGradient id="paint14_linear" x1="122.439" y1="171.513" x2="96.4387" y2="117.819" gradientUnits="userSpaceOnUse">
<stop stop-color="#2E824A"/>
<stop offset="1" stop-color="#8AD05F"/>
</linearGradient>
<linearGradient id="paint15_linear" x1="149.476" y1="176.482" x2="178.78" y2="149.39" gradientUnits="userSpaceOnUse">
<stop stop-color="#2E824A"/>
<stop offset="1" stop-color="#8AD05F"/>
</linearGradient>
<linearGradient id="paint16_linear" x1="161.752" y1="179.505" x2="147.948" y2="233.099" gradientUnits="userSpaceOnUse">
<stop stop-color="#FFC875"/>
<stop offset="1" stop-color="#E09147"/>
</linearGradient>
<linearGradient id="paint17_linear" x1="100.043" y1="211.174" x2="104.684" y2="162.04" gradientUnits="userSpaceOnUse">
<stop stop-color="#FFC875"/>
<stop offset="1" stop-color="#E09147"/>
</linearGradient>
</defs>
</svg>
